<svg width="55" height="55" viewBox="0 0 55 55" fill="none" xmlns="http://www.w3.org/2000/svg">
<g clip-path="url(#clip0_201_2259)">
<path d="M42.646 1.86056C42.0729 1.08428 41.2694 0.508673 40.35 0.215771C39.4306 -0.0771318 38.4422 -0.0723918 37.5257 0.229315C36.6091 0.531023 35.8112 1.1143 35.2455 1.89605C34.6799 2.6778 34.3754 3.61813 34.3754 4.58306V54.9997H38.9587V45.0676C49.9587 33.0318 55.9171 18.6906 42.646 1.86056ZM27.5004 -0.000271255V20.6247C27.5004 22.4481 26.7761 24.1968 25.4868 25.4861C24.1975 26.7754 22.4488 27.4997 20.6254 27.4997H18.3337V54.9997H13.7504V27.4997H11.4587C9.63538 27.4997 7.88669 26.7754 6.59738 25.4861C5.30807 24.1968 4.58374 22.4481 4.58374 20.6247V-0.000271255H9.16707V20.6247C9.16707 21.2325 9.40852 21.8154 9.83829 22.2452C10.2681 22.675 10.851 22.9164 11.4587 22.9164H13.7504V-0.000271255H18.3337V22.9164H20.6254C21.2332 22.9164 21.8161 22.675 22.2459 22.2452C22.6756 21.8154 22.9171 21.2325 22.9171 20.6247V-0.000271255H27.5004Z" fill="white"/>
</g>
<defs>
<clipPath id="clip0_201_2259">
<rect width="55" height="55" fill="white"/>
</clipPath>
</defs>
</svg>
